<svg width="144" height="24" viewBox="0 0 144 24" fill="none" xmlns="http://www.w3.org/2000/svg">
<path d="M-0.00702333 18.4663V1.66631H7.62498C9.44898 1.66631 11.057 2.01831 12.449 2.72231C13.841 3.41031 14.929 4.37831 15.713 5.62631C16.497 6.87431 16.889 8.35431 16.889 10.0663C16.889 11.7623 16.497 13.2423 15.713 14.5063C14.929 15.7543 13.841 16.7303 12.449 17.4343C11.057 18.1223 9.44898 18.4663 7.62498 18.4663H-0.00702333ZM3.88098 15.2743H7.43298C8.55298 15.2743 9.52098 15.0663 10.337 14.6503C11.169 14.2183 11.809 13.6103 12.257 12.8263C12.721 12.0423 12.953 11.1223 12.953 10.0663C12.953 8.99431 12.721 8.07431 12.257 7.30631C11.809 6.52231 11.169 5.92231 10.337 5.50631C9.52098 5.07431 8.55298 4.85831 7.43298 4.85831H3.88098V15.2743ZM25.0051 18.6583C23.9331 18.6583 22.9731 18.4503 22.1251 18.0343C21.2931 17.6183 20.6451 16.9863 20.1811 16.1383C19.7171 15.2743 19.4851 14.1783 19.4851 12.8503V5.55431H23.2291V12.2983C23.2291 13.3703 23.4531 14.1623 23.9011 14.6743C24.3651 15.1703 25.0131 15.4183 25.8451 15.4183C26.4211 15.4183 26.9331 15.2983 27.3811 15.0583C27.8291 14.8023 28.1811 14.4183 28.4371 13.9063C28.6931 13.3783 28.8211 12.7223 28.8211 11.9383V5.55431H32.5651V18.4663H29.0131V14.9143L29.6611 15.9463C29.2291 16.8423 28.5891 17.5223 27.7411 17.9863C26.9091 18.4343 25.9971 18.6583 25.0051 18.6583ZM41.5777 18.6583C40.3617 18.6583 39.2657 18.3863 38.2897 17.8423C37.3137 17.2823 36.5377 16.5063 35.9617 15.5143C35.4017 14.5223 35.1217 13.3543 35.1217 12.0103C35.1217 10.6503 35.4017 9.47431 35.9617 8.48231C36.5377 7.49031 37.3137 6.72231 38.2897 6.17831C39.2657 5.63431 40.3617 5.36231 41.5777 5.36231C42.6657 5.36231 43.6177 5.60231 44.4337 6.08231C45.2497 6.56231 45.8817 7.29031 46.3297 8.26631C46.7777 9.24231 47.0017 10.4903 47.0017 12.0103C47.0017 13.5143 46.7857 14.7623 46.3537 15.7543C45.9217 16.7303 45.2977 17.4583 44.4817 17.9383C43.6817 18.4183 42.7137 18.6583 41.5777 18.6583ZM42.2257 15.5863C42.8337 15.5863 43.3857 15.4423 43.8817 15.1543C44.3777 14.8663 44.7697 14.4583 45.0577 13.9303C45.3617 13.3863 45.5137 12.7463 45.5137 12.0103C45.5137 11.2583 45.3617 10.6183 45.0577 10.0903C44.7697 9.56231 44.3777 9.15431 43.8817 8.86631C43.3857 8.57831 42.8337 8.43431 42.2257 8.43431C41.6017 8.43431 41.0417 8.57831 40.5457 8.86631C40.0497 9.15431 39.6497 9.56231 39.3457 10.0903C39.0577 10.6183 38.9137 11.2583 38.9137 12.0103C38.9137 12.7463 39.0577 13.3863 39.3457 13.9303C39.6497 14.4583 40.0497 14.8663 40.5457 15.1543C41.0417 15.4423 41.6017 15.5863 42.2257 15.5863ZM45.6097 18.4663V15.8263L45.6817 11.9863L45.4417 8.17031V0.658308H49.1857V18.4663H45.6097ZM59.0589 18.6583C57.5869 18.6583 56.2909 18.3703 55.1709 17.7943C54.0669 17.2183 53.2109 16.4343 52.6029 15.4423C51.9949 14.4343 51.6909 13.2903 51.6909 12.0103C51.6909 10.7143 51.9869 9.57031 52.5789 8.57831C53.1869 7.57031 54.0109 6.78631 55.0509 6.22631C56.0909 5.65031 57.2669 5.36231 58.5789 5.36231C59.8429 5.36231 60.9789 5.63431 61.9869 6.17831C63.0109 6.70631 63.8189 7.47431 64.4109 8.48231C65.0029 9.47431 65.2989 10.6663 65.2989 12.0583C65.2989 12.2023 65.2909 12.3703 65.2749 12.5623C65.2589 12.7383 65.2429 12.9063 65.2269 13.0663H54.7389V10.8823H63.2589L61.8189 11.5303C61.8189 10.8583 61.6829 10.2743 61.4109 9.77831C61.1389 9.28231 60.7629 8.89831 60.2829 8.62631C59.8029 8.33831 59.2429 8.19431 58.6029 8.19431C57.9629 8.19431 57.3949 8.33831 56.8989 8.62631C56.4189 8.89831 56.0429 9.29031 55.7709 9.80231C55.4989 10.2983 55.3629 10.8903 55.3629 11.5783V12.1543C55.3629 12.8583 55.5149 13.4823 55.8189 14.0263C56.1389 14.5543 56.5789 14.9623 57.1389 15.2503C57.7149 15.5223 58.3869 15.6583 59.1549 15.6583C59.8429 15.6583 60.4429 15.5543 60.9549 15.3463C61.4829 15.1383 61.9629 14.8263 62.3949 14.4103L64.3869 16.5703C63.7949 17.2423 63.0509 17.7623 62.1549 18.1303C61.2589 18.4823 60.2269 18.6583 59.0589 18.6583ZM73.5755 18.7543C72.2315 18.7543 70.9435 18.5783 69.7115 18.2263C68.4795 17.8583 67.4875 17.3863 66.7355 16.8103L68.0555 13.8823C68.7755 14.3943 69.6235 14.8183 70.5995 15.1543C71.5915 15.4743 72.5915 15.6343 73.5995 15.6343C74.3675 15.6343 74.9835 15.5623 75.4475 15.4183C75.9275 15.2583 76.2795 15.0423 76.5035 14.7703C76.7275 14.4983 76.8395 14.1863 76.8395 13.8343C76.8395 13.3863 76.6635 13.0343 76.3115 12.7783C75.9595 12.5063 75.4955 12.2903 74.9195 12.1303C74.3435 11.9543 73.7035 11.7943 72.9995 11.6503C72.3115 11.4903 71.6155 11.2983 70.9115 11.0743C70.2235 10.8503 69.5915 10.5623 69.0155 10.2103C68.4395 9.85831 67.9675 9.39431 67.5995 8.81831C67.2475 8.24231 67.0715 7.50631 67.0715 6.61031C67.0715 5.65031 67.3275 4.77831 67.8395 3.99431C68.3675 3.19431 69.1515 2.56231 70.1915 2.09831C71.2475 1.61831 72.5675 1.37831 74.1515 1.37831C75.2075 1.37831 76.2475 1.50631 77.2715 1.76231C78.2955 2.00231 79.1995 2.37031 79.9835 2.86631L78.7835 5.81831C77.9995 5.37031 77.2155 5.04231 76.4315 4.83431C75.6475 4.61031 74.8795 4.49831 74.1275 4.49831C73.3755 4.49831 72.7595 4.58631 72.2795 4.76231C71.7995 4.93831 71.4555 5.17031 71.2475 5.45831C71.0395 5.73031 70.9355 6.05031 70.9355 6.41831C70.9355 6.85031 71.1115 7.20231 71.4635 7.47431C71.8155 7.73031 72.2795 7.93831 72.8555 8.09831C73.4315 8.25831 74.0635 8.41831 74.7515 8.57831C75.4555 8.73831 76.1515 8.92231 76.8395 9.13031C77.5435 9.33831 78.1835 9.61831 78.7595 9.97031C79.3355 10.3223 79.7995 10.7863 80.1515 11.3623C80.5195 11.9383 80.7035 12.6663 80.7035 13.5463C80.7035 14.4903 80.4395 15.3543 79.9115 16.1383C79.3835 16.9223 78.5915 17.5543 77.5355 18.0343C76.4955 18.5143 75.1755 18.7543 73.5755 18.7543ZM90.9442 5.36231C91.9682 5.36231 92.8802 5.57031 93.6802 5.98631C94.4962 6.38631 95.1362 7.01031 95.6002 7.85831C96.0642 8.69031 96.2962 9.76231 96.2962 11.0743V18.4663H92.5522V11.6503C92.5522 10.6103 92.3202 9.84231 91.8562 9.34631C91.4082 8.85031 90.7682 8.60231 89.9362 8.60231C89.3442 8.60231 88.8082 8.73031 88.3282 8.98631C87.8642 9.22631 87.4962 9.60231 87.2242 10.1143C86.9682 10.6263 86.8402 11.2823 86.8402 12.0823V18.4663H83.0962V0.658308H86.8402V9.13031L86.0002 8.05031C86.4642 7.18631 87.1282 6.52231 87.9922 6.05831C88.8562 5.59431 89.8402 5.36231 90.9442 5.36231ZM107.61 18.4663V15.9463L107.37 15.3943V10.8823C107.37 10.0823 107.122 9.45831 106.626 9.01031C106.146 8.56231 105.402 8.33831 104.394 8.33831C103.706 8.33831 103.026 8.45031 102.354 8.67431C101.698 8.88231 101.138 9.17031 100.674 9.53831L99.3299 6.92231C100.034 6.42631 100.882 6.04231 101.874 5.77031C102.866 5.49831 103.874 5.36231 104.898 5.36231C106.866 5.36231 108.394 5.82631 109.482 6.75431C110.57 7.68231 111.114 9.13031 111.114 11.0983V18.4663H107.61ZM103.674 18.6583C102.666 18.6583 101.802 18.4903 101.082 18.1543C100.362 17.8023 99.8099 17.3303 99.4259 16.7383C99.0419 16.1463 98.8499 15.4823 98.8499 14.7463C98.8499 13.9783 99.0339 13.3063 99.4019 12.7303C99.7859 12.1543 100.386 11.7063 101.202 11.3863C102.018 11.0503 103.082 10.8823 104.394 10.8823H107.826V13.0663H104.802C103.922 13.0663 103.314 13.2103 102.978 13.4983C102.658 13.7863 102.498 14.1463 102.498 14.5783C102.498 15.0583 102.682 15.4423 103.05 15.7303C103.434 16.0023 103.954 16.1383 104.61 16.1383C105.234 16.1383 105.794 15.9943 106.29 15.7063C106.786 15.4023 107.146 14.9623 107.37 14.3863L107.946 16.1143C107.674 16.9463 107.178 17.5783 106.458 18.0103C105.738 18.4423 104.81 18.6583 103.674 18.6583ZM122.134 18.6583C121.046 18.6583 120.094 18.4183 119.278 17.9383C118.462 17.4583 117.822 16.7303 117.358 15.7543C116.91 14.7623 116.686 13.5143 116.686 12.0103C116.686 10.4903 116.902 9.24231 117.334 8.26631C117.766 7.29031 118.39 6.56231 119.206 6.08231C120.022 5.60231 120.998 5.36231 122.134 5.36231C123.35 5.36231 124.438 5.64231 125.398 6.20231C126.374 6.74631 127.142 7.51431 127.702 8.50631C128.278 9.49831 128.566 10.6663 128.566 12.0103C128.566 13.3703 128.278 14.5463 127.702 15.5383C127.142 16.5303 126.374 17.2983 125.398 17.8423C124.438 18.3863 123.35 18.6583 122.134 18.6583ZM114.502 23.1223V5.55431H118.078V8.19431L118.006 12.0343L118.246 15.8503V23.1223H114.502ZM121.486 15.5863C122.11 15.5863 122.662 15.4423 123.142 15.1543C123.638 14.8663 124.03 14.4583 124.318 13.9303C124.622 13.3863 124.774 12.7463 124.774 12.0103C124.774 11.2583 124.622 10.6183 124.318 10.0903C124.03 9.56231 123.638 9.15431 123.142 8.86631C122.662 8.57831 122.11 8.43431 121.486 8.43431C120.862 8.43431 120.302 8.57831 119.806 8.86631C119.31 9.15431 118.918 9.56231 118.63 10.0903C118.342 10.6183 118.198 11.2583 118.198 12.0103C118.198 12.7463 118.342 13.3863 118.63 13.9303C118.918 14.4583 119.31 14.8663 119.806 15.1543C120.302 15.4423 120.862 15.5863 121.486 15.5863ZM137.481 18.6583C136.009 18.6583 134.713 18.3703 133.593 17.7943C132.489 17.2183 131.633 16.4343 131.025 15.4423C130.417 14.4343 130.113 13.2903 130.113 12.0103C130.113 10.7143 130.409 9.57031 131.001 8.57831C131.609 7.57031 132.433 6.78631 133.473 6.22631C134.513 5.65031 135.689 5.36231 137.001 5.36231C138.265 5.36231 139.401 5.63431 140.409 6.17831C141.433 6.70631 142.241 7.47431 142.833 8.48231C143.425 9.47431 143.721 10.6663 143.721 12.0583C143.721 12.2023 143.713 12.3703 143.697 12.5623C143.681 12.7383 143.665 12.9063 143.649 13.0663H133.161V10.8823H141.681L140.241 11.5303C140.241 10.8583 140.105 10.2743 139.833 9.77831C139.561 9.28231 139.185 8.89831 138.705 8.62631C138.225 8.33831 137.665 8.19431 137.025 8.19431C136.385 8.19431 135.817 8.33831 135.321 8.62631C134.841 8.89831 134.465 9.29031 134.193 9.80231C133.921 10.2983 133.785 10.8903 133.785 11.5783V12.1543C133.785 12.8583 133.937 13.4823 134.241 14.0263C134.561 14.5543 135.001 14.9623 135.561 15.2503C136.137 15.5223 136.809 15.6583 137.577 15.6583C138.265 15.6583 138.865 15.5543 139.377 15.3463C139.905 15.1383 140.385 14.8263 140.817 14.4103L142.809 16.5703C142.217 17.2423 141.473 17.7623 140.577 18.1303C139.681 18.4823 138.649 18.6583 137.481 18.6583Z" fill="white"/>
</svg>
